{"title":"18+ The Infiltrator 2016 Movies DVDRip XviD AAC New +Sample ☻rDX","uid":15914580,"size":739872518,"categoryP":"video","categoryS":"movies","magnet":"?xt=urn:btih:0dadea00675b3b8b45a5d39e1c9dbb1cb6a56373&amp;dn=18%2B+The+Infiltrator+2016+Movies+DVDRip+XviD+AAC+New+%2BSample+%E2%98%BBrDX&amp;tr=udp%3A%2F%2Ftracker.leechers-paradise.org%3A6969&amp;tr=udp%3A%2F%2Fzer0day.ch%3A1337&amp;tr=udp%3A%2F%2Fopen.demonii.com%3A1337&amp;tr=udp%3A%2F%2Ftracker.coppersurfer.tk%3A6969&amp;tr=udp%3A%2F%2Fexodus.desync.com%3A6969","seeders":2,"leechers":9,"uploader":"basicssom","files":2,"time":1475188005,"description":"----------------------------------------------------------------\r\n18+ The Infiltrator 2016 English Movies DVDRip XviD AAC New Source with Sample ☻rDX☻\r\n\r\nSCREEN SHOTS &amp; POSTER:\r\n  \nhttp://postimage.co.nr/2016/10/3g/index.htm  \nhttp://postimage.co.nr/2016/10/3g/1.html  \nhttp://postimage.co.nr/2016/10/3g/2.html  \nhttp://postimage.co.nr/2016/10/3g/3.html  \nhttp://postimage.co.nr/2016/10/3g/4.html  \nhttp://postimage.co.nr/2016/10/3g/5.html  \nhttp://postimage.co.nr/2016/10/3g/6.html  \nhttp://postimage.co.nr/2016/10/3g/7.html  \nhttp://postimage.co.nr/2016/10/3g/8.html  \nhttp://postimage.co.nr/2016/10/3g/9.html  \nhttp://postimage.co.nr/2016/10/3g/10.html\r\n\r\nFormat                                   : Matroska\r\nFormat version                           : Version 4 / Version 2\r\nFile size                                : 698 MiB\r\nDuration                                 : 2 h 7 min\r\nOverall bit rate mode                    : Constant\r\nOverall bit rate                         : 767 kb/s\r\nMovie name                               : 18+ The Infiltrator 2016 English Movies DVDRip XviD AAC New Source ☻rDX☻\r\n\r\nVideo\r\nID                                       : 2\r\nFormat                                   : AVC\r\nFormat/Info                              : Advanced Video Codec\r\nFormat profile                           :   \r\nFormat settings, CABAC                   : Yes\r\nFormat settings, ReFrames                : 2 frames\r\nFormat settings, GOP                     : M=1, N=12\r\nCodec ID                                 : V_MPEG4/ISO/AVC\r\nDuration                                 : 2 h 7 min\r\nBit rate mode                            : Constant\r\nBit rate                                 : 304 kb/s\r\nNominal bit rate                         : 320 kb/s\r\nWidth                                    : 720 pixels\r\nHeight                                   : 304 pixels\r\nDisplay aspect ratio                     : 2.35:1\r\nFrame rate mode                          : Constant\r\nFrame rate                               : 23.976 (24000/1001) FPS\r\nColor space                              : YUV\r\nChroma subsampling                       : 4:2:0\r\nBit depth                                : 8 bits\r\nScan type                                : Progressive\r\nBits/(Pixel*Frame)                       : 0.058\r\nStream size                              : 276 MiB (40%)\r\nTitle                                    : ☻rDX☻\r\nDefault                                  : Yes\r\nForced                                   : No\r\n\r\nAudio\r\nID                                       : 1\r\nFormat                                   : AC-3\r\nFormat/Info                              : Audio Coding 3\r\nMode extension                           : CM (complete main)\r\nFormat settings, Endianness              : Big\r\nCodec ID                                 : A_AC3\r\nDuration                                 : 2 h 7 min\r\nBit rate mode                            : Constant\r\nBit rate                                 : 448 kb/s\r\nChannel(s)                               : 6 channels\r\nChannel positions                        : Front: L C R, Side: L R, LFE\r\nSampling rate                            : 48.0 kHz\r\nFrame rate                               : 31.250 FPS (1536 spf)\r\nCompression mode                         : Lossy\r\nStream size                              : 407 MiB (58%)\r\nTitle                                    : ☻rDX☻\r\nDefault                                  : Yes\r\nForced                                   : No\r\n\r\nIMDB \nhttp://www.imdb.com/title/tt1355631/","torrent":{"xt":"urn:btih:0dadea00675b3b8b45a5d39e1c9dbb1cb6a56373","amp;dn":"18%2B+The+Infiltrator+2016+Movies+DVDRip+XviD+AAC+New+%2BSample+%E2%98%BBrDX","amp;tr":["udp%3A%2F%2Ftracker.leechers-paradise.org%3A6969","udp%3A%2F%2Fzer0day.ch%3A1337","udp%3A%2F%2Fopen.demonii.com%3A1337","udp%3A%2F%2Ftracker.coppersurfer.tk%3A6969","udp%3A%2F%2Fexodus.desync.com%3A6969"],"infoHash":"0dadea00675b3b8b45a5d39e1c9dbb1cb6a56373","infoHashBuffer":{"type":"Buffer","data":[13,173,234,0,103,91,59,139,69,165,211,158,28,157,187,28,182,165,99,115]},"announce":[],"urlList":[]}}